<?xml version="1.0" standalone="no"?>
<!DOCTYPE svg PUBLIC "-//W3C//DTD SVG 20010904//EN"
 "http://www.w3.org/TR/2001/REC-SVG-20010904/DTD/svg10.dtd">
<svg version="1.0" xmlns="http://www.w3.org/2000/svg"
 width="2000.000000pt" height="1407.000000pt" viewBox="0 0 2000.000000 1407.000000"
 preserveAspectRatio="xMidYMid meet">

<g transform="translate(0.000000,1407.000000) scale(0.100000,-0.100000)"
fill="#000000" stroke="none">
<path d="M0 7035 l0 -7035 10000 0 10000 0 0 7035 0 7035 -10000 0 -10000 0 0
-7035z m2960 5925 l0 -370 -740 0 -740 0 0 -370 0 -370 740 0 740 0 0 -1110 0
-1110 -1110 0 -1110 0 0 370 0 370 740 0 740 0 0 370 0 370 -740 0 -740 0 0
1110 0 1110 1110 0 1110 0 0 -370z m2970 -1480 l0 -1850 -370 0 -370 0 0 740
0 740 -375 0 -375 0 0 -740 0 -740 -370 0 -370 0 0 1850 0 1850 1115 0 1115 0
0 -1850z m1480 370 l0 -1480 740 0 740 0 0 -370 0 -370 -1110 0 -1110 0 0
1850 0 1850 370 0 370 0 0 -1480z m3700 1110 l0 -370 -370 0 -370 0 0 -1480 0
-1480 -370 0 -370 0 0 1480 0 1480 -370 0 -370 0 0 370 0 370 1110 0 1110 0 0
-370z m1480 0 l0 -370 370 0 370 0 0 370 0 370 370 0 370 0 0 -370 0 -370
-370 0 -370 0 0 -1480 0 -1480 -370 0 -370 0 0 1480 0 1480 -370 0 -370 0 0
370 0 370 370 0 370 0 0 -370z m-9630 -4440 l0 -370 -740 0 -740 0 0 -370 0
-370 740 0 740 0 0 -375 0 -375 -740 0 -740 0 0 -740 0 -740 -370 0 -370 0 0
1855 0 1855 1110 0 1110 0 0 -370z m1480 -1485 l0 -1855 -370 0 -370 0 0 1855
0 1855 370 0 370 0 0 -1855z m2970 1485 l0 -370 -740 0 -740 0 0 -370 0 -370
740 0 740 0 0 -1115 0 -1115 -1110 0 -1110 0 0 370 0 370 740 0 740 0 0 370 0
370 -740 0 -740 0 0 1115 0 1115 1110 0 1110 0 0 -370z m1480 -370 l0 -740
370 0 370 0 0 740 0 740 370 0 370 0 0 -1855 0 -1855 -370 0 -370 0 0 740 0
740 -370 0 -370 0 0 -740 0 -740 -370 0 -370 0 0 1855 0 1855 370 0 370 0 0
-740z m-5930 -4080 l0 -370 -740 0 -740 0 0 -370 0 -370 740 0 740 0 0 -1110
0 -1110 -1110 0 -1110 0 0 370 0 370 740 0 740 0 0 370 0 370 -740 0 -740 0 0
1110 0 1110 1110 0 1110 0 0 -370z m2970 0 l0 -370 -370 0 -370 0 0 -1480 0
-1480 -375 0 -375 0 0 1480 0 1480 -370 0 -370 0 0 370 0 370 1115 0 1115 0 0
-370z m1480 -1110 l0 -1480 370 0 370 0 0 1480 0 1480 370 0 370 0 0 -1850 0
-1850 -1110 0 -1110 0 0 1850 0 1850 370 0 370 0 0 -1480z m3700 1110 l0 -370
370 0 370 0 0 -1110 0 -1110 -370 0 -370 0 0 -370 0 -370 -740 0 -740 0 0
1850 0 1850 740 0 740 0 0 -370z m2220 -1480 l0 -1850 -370 0 -370 0 0 1850 0
1850 370 0 370 0 0 -1850z m2970 0 l0 -1850 -1115 0 -1115 0 0 1850 0 1850
1115 0 1115 0 0 -1850z m2960 1480 l0 -370 -740 0 -740 0 0 -370 0 -370 740 0
740 0 0 -1110 0 -1110 -1110 0 -1110 0 0 370 0 370 740 0 740 0 0 370 0 370
-740 0 -740 0 0 1110 0 1110 1110 0 1110 0 0 -370z"/>
<path d="M4440 12220 l0 -370 375 0 375 0 0 370 0 370 -375 0 -375 0 0 -370z"/>
<path d="M10370 2590 l0 -1110 370 0 370 0 0 1110 0 1110 -370 0 -370 0 0
-1110z"/>
<path d="M14810 2590 l0 -1110 375 0 375 0 0 1110 0 1110 -375 0 -375 0 0
-1110z"/>
</g>
</svg>
